<?xml version="1.0" encoding="utf-8"?>
<!-- Generator: Adobe Illustrator 18.1.1, SVG Export Plug-In . SVG Version: 6.00 Build 0)  -->
<!DOCTYPE svg PUBLIC "-//W3C//DTD SVG 1.1//EN" "http://www.w3.org/Graphics/SVG/1.1/DTD/svg11.dtd">
<svg version="1.1" id="Layer_1" xmlns="http://www.w3.org/2000/svg" xmlns:xlink="http://www.w3.org/1999/xlink" x="0px" y="0px"
	 viewBox="0 0 470 160" enable-background="new 0 0 470 160" xml:space="preserve">
<g>
	<circle fill="#0E3A51" cx="80.5" cy="80" r="75"/>
	<g>
		<defs>
			<circle id="SVGID_1_" cx="80.5" cy="80" r="75"/>
		</defs>
		<clipPath id="SVGID_2_">
			<use xlink:href="#SVGID_1_"  overflow="visible"/>
		</clipPath>
		<g clip-path="url(#SVGID_2_)">
			<g>
				<g>
					<g>
						<path fill="#15A9CE" d="M71.2,87.7h146.2c4.8,0,8.7-3.9,8.7-8.7v0c0-4.8-3.9-8.7-8.7-8.7H71.2c-4.8,0-8.7,3.9-8.7,8.7v0
							C62.5,83.8,66.4,87.7,71.2,87.7z"/>
					</g>
				</g>
			</g>
			<g>
				<g>
					<g>
						<path fill="#92D13D" d="M89.2,59.3h146.2c4.8,0,8.7-3.9,8.7-8.7v0c0-4.8-3.9-8.7-8.7-8.7H89.2c-4.8,0-8.7,3.9-8.7,8.7v0
							C80.5,55.5,84.4,59.3,89.2,59.3z"/>
					</g>
				</g>
			</g>
			<g>
				<g>
					<g>
						<path fill="#DE3423" d="M53.2,116h146.2c4.8,0,8.7-3.9,8.7-8.7v0c0-4.8-3.9-8.7-8.7-8.7H53.2c-4.8,0-8.7,3.9-8.7,8.7v0
							C44.5,112.1,48.4,116,53.2,116z"/>
					</g>
				</g>
			</g>
		</g>
	</g>
</g>
<g>
	<g>
		<g>
			<g>
				<path fill="#0E3A51" d="M182.5,33.3h-11.7v-7h31.5v7h-11.7v29.4h-8V33.3z"/>
				<path fill="#0E3A51" d="M197.8,73.7l6.5-13.8l-10-22h8l2.6,6.1c1.1,2.7,2.2,5.3,3.2,7.8h0.1c1.1-2.7,2.2-5.3,3.4-8l2.6-6h7.6
					l-16.1,35.7H197.8z"/>
				<path fill="#0E3A51" d="M230.1,73.7h-7.6V37.9h7.5v1.3l0.1,0.1c1.6-1.1,3.7-1.9,6.1-1.9c6.3,0,11.7,5,11.7,12.7
					c0,7.9-5.7,13.1-12.9,13.1c-2,0-3.6-0.4-4.8-1l-0.1,0.1V73.7z M234,57c4,0,6.2-2.9,6.2-6.5c0-3.7-2.2-6.7-6-6.7
					c-1.6,0-3,0.6-4.1,1.4v10.9C231,56.6,232.4,57,234,57z"/>
				<path fill="#0E3A51" d="M256.7,52.3c0.9,3.4,3.7,5,7.2,5c2.8,0,5.8-1,8.4-2.7v6.4c-2.4,1.5-6.1,2.3-9.4,2.3
					c-8.1,0-14-5.1-14-12.8c0-7.9,6.1-13,12.9-13c6.1,0,11.8,4,11.8,12.3c0,0.9-0.1,2-0.2,2.6H256.7z M266.5,47.5
					c-0.5-2.7-2.4-4.3-4.9-4.3c-2.4,0-4.4,1.5-5.1,4.3H266.5z"/>
				<path fill="#0E3A51" d="M275.6,54.5c3.4,2,7.4,2.9,9.7,2.9c2.1,0,3.4-0.6,3.4-1.9c0-1.9-2.8-1.7-6.5-2.7
					c-4.7-1.2-7.4-3.1-7.4-7.2c0.1-5.2,4.7-8.2,10.8-8.2c3,0,6.6,0.6,9.4,2v6.6c-3.3-1.9-7.1-2.7-9.3-2.7c-2,0-3.2,0.6-3.2,1.8
					c0,1.8,2.7,1.7,6.3,2.6c4.7,1.2,7.6,3,7.6,7.2c-0.1,5.4-4.8,8.4-11.1,8.4c-3,0-6.8-0.6-9.7-2.1V54.5z"/>
				<path fill="#0E3A51" d="M312.9,61.1c-1.6,1.2-4.1,2.1-6.9,2.1c-2.1,0-4.1-0.5-5.7-1.6c-1.8-1.3-2.9-3.2-2.9-5.8
					c0-2.7,1.3-4.8,3-6c1.9-1.3,4.4-1.8,6.9-1.8c1.5,0,2.9,0.2,4.3,0.5v-1c0-1.2-0.4-2.1-1-2.6c-0.7-0.7-2-1.1-3.8-1.1
					c-2.8,0-5.3,0.9-7.2,2v-6.6c2-1,5-1.9,8.6-1.9c3.3,0,6.3,0.8,8.2,2.4c1.9,1.5,2.8,3.7,2.8,6.8V55c0,1.2,0.5,2,1.5,2
					c0.4,0,0.9-0.1,1.3-0.3v5.7c-0.9,0.5-2.2,0.8-3.7,0.8c-2,0-4-0.6-5.3-2H312.9z M311.6,53c-0.8-0.3-1.9-0.4-2.7-0.4
					c-2,0-3.9,0.6-3.9,2.5c0,1.6,1.4,2.5,3.2,2.5c1.3,0,2.6-0.5,3.5-1V53z"/>
				<path fill="#0E3A51" d="M324.6,44.3h-3.5v-6.3h3.5v-3.7c0-3.5,0.7-6.4,2.6-8.2c1.8-1.7,4.5-2.3,7-2.3c1.4,0,2.9,0.2,4.2,0.7v6.2
					c-1-0.3-2.5-0.5-3.3-0.5c-2.4,0-2.9,1.5-2.9,3.6v4.2h5.7v6.3h-5.7v18.4h-7.6V44.3z"/>
				<path fill="#0E3A51" d="M345.4,52.3c0.9,3.4,3.7,5,7.2,5c2.8,0,5.8-1,8.4-2.7v6.4c-2.4,1.5-6.1,2.3-9.4,2.3
					c-8.1,0-14-5.1-14-12.8c0-7.9,6.1-13,12.9-13c6.1,0,11.8,4,11.8,12.3c0,0.9-0.1,2-0.2,2.6H345.4z M355.3,47.5
					c-0.5-2.7-2.4-4.3-4.9-4.3c-2.4,0-4.4,1.5-5.1,4.3H355.3z"/>
			</g>
		</g>
	</g>
	<g>
		<g>
			<g>
				<path fill="#0E3A51" d="M214.5,94.4l-3.8,3.5c-3.9-4.5-9-6.8-15.3-6.8c-5.9,0-10.8,2-14.7,6c-3.9,4-5.8,8.9-5.8,14.9
					s1.9,11,5.8,15c3.9,4,8.8,5.9,14.7,5.9c6.5,0,11.7-2.4,15.6-7.1l3.8,3.5c-5,5.8-11.5,8.8-19.4,8.8c-7.3,0-13.5-2.4-18.6-7.4
					c-5-5-7.6-11.2-7.6-18.7c0-7.4,2.5-13.6,7.6-18.6c5.1-5,11.3-7.5,18.6-7.5C203,85.9,209.4,88.7,214.5,94.4z"/>
				<path fill="#0E3A51" d="M216.5,118.9c0-5.5,1.9-10,5.6-13.7c3.7-3.7,8.3-5.5,13.7-5.5s9.9,1.9,13.7,5.5
					c3.7,3.7,5.6,8.2,5.6,13.7s-1.9,10.1-5.6,13.8c-3.7,3.7-8.3,5.5-13.7,5.5s-9.9-1.8-13.7-5.5
					C218.4,128.9,216.5,124.3,216.5,118.9z M221.9,118.9c0,4.1,1.3,7.5,4,10.2c2.7,2.7,6,4,10,4s7.3-1.4,10-4c2.7-2.7,4-6.1,4-10.2
					s-1.3-7.5-4-10.2c-2.7-2.7-6-4.1-10-4.1s-7.3,1.4-10,4.1C223.2,111.4,221.9,114.8,221.9,118.9z"/>
				<path fill="#0E3A51" d="M258.3,137v-36.3h5.3v6.1c1.9-4,6-6.7,11.4-6.7c8.1,0,13.2,5.4,13.2,13.7v15c0,3,0.4,3.8,2.5,3.8
					c0.4,0,0.8-0.1,1.4-0.1v4.4c-0.6,0.2-1.4,0.4-2.3,0.4c-2.8,0-6.9-0.8-6.9-8.1V115c0-6-3.5-9.9-9.3-9.9c-6,0-10.1,4.2-10.1,10.2
					V137H258.3z"/>
				<path fill="#0E3A51" d="M324.6,106.1V86.8h5.3v42.1c0,3.2,0.7,4.5,2.7,4.5c0.6,0,1.2-0.1,1.9-0.1v4c-0.9,0.4-2,0.6-3.4,0.6
					c-1.6,0-2.9-0.4-3.8-1c-1.4-1.1-2.2-2.8-2.4-5.2c-2.7,4.2-7.1,6.4-13.2,6.4c-5.1,0-9.5-1.8-13-5.5c-3.5-3.7-5.3-8.3-5.3-13.8
					s1.8-10,5.3-13.7c3.5-3.7,7.9-5.5,13-5.5C318.3,99.6,322.5,102.4,324.6,106.1z M321.4,129.1c2.6-2.7,3.9-6.1,3.9-10.2
					s-1.3-7.5-3.9-10.2c-2.5-2.7-5.8-4.1-9.6-4.1c-3.7,0-6.8,1.4-9.4,4.1c-2.4,2.7-3.7,6-3.7,10.2s1.2,7.5,3.7,10.2
					c2.5,2.7,5.6,4,9.4,4C315.6,133.1,318.9,131.7,321.4,129.1z"/>
				<path fill="#0E3A51" d="M335.8,100.7h5.3v22c0,6,3.5,9.9,9,9.9c5.8,0,9.9-4.2,9.9-10.2v-21.7h5.3v27.9c0,3.2,0.7,4.5,2.7,4.5
					c0.6,0,1.2-0.1,1.9-0.1v4c-0.8,0.4-1.9,0.6-3.4,0.6c-1.9,0-3.5-0.6-4.5-1.7c-0.9-0.9-1.4-2.1-1.7-3.6c-2.3,3.5-6.2,5.3-11.6,5.3
					c-8,0-13-5.4-13-13.7V100.7z"/>
				<path fill="#0E3A51" d="M402.5,105.1l-3.2,3.7c-2.7-2.8-6.3-4.2-10.5-4.2c-4,0-7.3,1.4-10,4.1c-2.7,2.7-4,6-4,10.2
					s1.3,7.5,4,10.2c2.7,2.7,6,4,10,4c4.2,0,7.8-1.4,10.5-4.2l3.2,3.7c-3.5,3.7-8.1,5.5-13.8,5.5c-5.4,0-9.9-1.8-13.7-5.5
					c-3.7-3.7-5.6-8.3-5.6-13.8s1.9-10,5.6-13.7c3.7-3.7,8.3-5.5,13.7-5.5C394.4,99.6,399,101.4,402.5,105.1z"/>
				<path fill="#0E3A51" d="M408.9,105.7h-4.2v-5h4.2V86.8h5.3v13.9h8.4v5h-8.4v21.2c0,4.6,1.5,6.3,5,6.3c1.4,0,2.4-0.1,3.4-0.2v4.6
					c-0.8,0.4-2.2,0.6-4,0.6c-6.5,0-9.7-3.7-9.7-11.2V105.7z"/>
				<path fill="#0E3A51" d="M428,137V86.8h17.1c4.2,0,7.7,1.4,10.7,4.3c3,2.8,4.4,6.4,4.4,10.7c0,6.6-3.8,12-9.6,14.3l12.1,21h-6.4
					L445,117.1h-0.1h-11.3V137H428z M433.6,111.9h10.9c2.9,0,5.3-0.9,7.1-2.9c1.9-1.9,2.9-4.3,2.9-7.3c0-5.5-4.1-9.8-9.6-9.8h-11.3
					V111.9z"/>
			</g>
		</g>
	</g>
</g>
</svg>
